<svg xmlns="http://www.w3.org/2000/svg" width="16" height="16" viewBox="0 0 16 16">
    <g fill="none" fill-rule="evenodd">
        <g fill="#DE2102">
            <g>
                <path d="M8.004 16C12.378 16 16 12.376 16 8c0-4.376-3.63-8-8.004-8S0 3.624 0 8c0 4.376 3.63 8 8.004 8zm-.008-6.58c-.421 0-.66-.24-.669-.677L7.22 4.607c-.016-.43.306-.743.768-.743.453 0 .792.314.775.751l-.115 4.128c-.008.446-.248.677-.652.677zm0 2.642c-.487 0-.908-.38-.908-.859s.413-.858.908-.858c.495 0 .9.371.9.858s-.413.859-.9.859z" transform="translate(-32 -335) translate(32 335)"/>
            </g>
        </g>
    </g>
</svg>
