<svg xmlns="http://www.w3.org/2000/svg" width="32" height="32" viewBox="0 0 32 32">
    <g fill="none" fill-rule="evenodd">
        <g>
            <g>
                <path d="M0 0H32V32H0z" transform="translate(-327 -205) translate(327 205)"/>
                <path fill="#2BB673" d="M20.412 23c1.383 0 2.344-.38 3.19-1.305.061-.061.114-.123.158-.176.502-.547.74-1.102.74-1.613 0-.564-.317-1.093-.996-1.552l-2.423-1.675c-.704-.493-1.541-.564-2.255.141l-.626.618c-.185.185-.36.211-.581.088-.423-.265-1.33-1.032-2.009-1.702-.731-.723-1.304-1.384-1.639-1.948-.123-.211-.097-.397.088-.582l.617-.626c.705-.714.635-1.551.15-2.256l-1.674-2.416c-.467-.678-.996-.987-1.56-.996-.51-.009-1.066.238-1.603.732l-.185.159C8.888 8.728 8.5 9.698 8.5 11.064c0 2.354 1.498 5.201 4.115 7.82 2.607 2.6 5.453 4.116 7.797 4.116zm.009-1.11c-2.124.035-4.802-1.587-6.978-3.756-2.185-2.186-3.86-4.945-3.824-7.07.009-.926.326-1.737.996-2.336.044-.035.088-.07.132-.115.282-.255.581-.387.837-.387.264 0 .475.105.652.37l1.612 2.415c.194.282.22.608-.088.917l-.705.705c-.529.52-.502 1.19-.123 1.71.423.609 1.216 1.525 1.93 2.23.704.715 1.682 1.57 2.29 2.002.52.37 1.19.396 1.718-.133l.696-.705c.308-.308.634-.282.925-.088l2.414 1.613c.256.177.362.397.362.653 0 .264-.133.555-.388.846-.044.044-.07.08-.115.132-.599.67-1.41.979-2.343.996z" transform="translate(-327 -205) translate(327 205)"/>
            </g>
        </g>
    </g>
</svg>
