<svg width="27px" height="25px" xmlns="http://www.w3.org/2000/svg" xmlns:xlink="http://www.w3.org/1999/xlink">
  <g fill="#FFF">
      <path d="M13.506 1.125C21.01 1.125 27 5.963 27 11.957c0 6.438-6.588 11.175-14.765 10.781-2.404 1.651-5.558 3.137-7.097 3.137-1.145 0-1.475-.927-.865-1.727.534-.673 1.5-1.981 2.048-3.022C2.518 19.348 0 15.88 0 11.957 0 5.963 6.003 1.125 13.506 1.125zm0 1.702c-6.562 0-11.79 4.089-11.79 9.13 0 3.314 2.227 6.184 5.991 7.937.649.305.725.774.432 1.308-.42.85-1.386 2.057-2.034 2.844-.064.09-.026.153.063.127 1.068-.355 3.256-1.6 4.871-2.692.394-.305.75-.432 1.183-.432.521.026.941.051 1.284.051 6.55 0 11.777-4.101 11.777-9.143 0-5.041-5.227-9.13-11.777-9.13zM10.21 10.94c.513 0 .928.42.928.938 0 .519-.415.94-.928.94-.512 0-.928-.421-.928-.94 0-.518.416-.938.928-.938zm3.713 0c.512 0 .928.42.928.938 0 .519-.416.94-.928.94-.513 0-.928-.421-.928-.94 0-.518.415-.938.928-.938zm3.712 0c.513 0 .928.42.928.938 0 .519-.415.94-.928.94-.512 0-.928-.421-.928-.94 0-.518.416-.938.928-.938z"/>
  </g>
</svg>