<svg xmlns="http://www.w3.org/2000/svg" width="24" height="24" viewBox="0 0 24 24">
    <g fill="none" fill-rule="evenodd">
        <g fill="#ADB7BE">
            <path d="M346 111c6.579 0 12-5.431 12-11.994C358 92.431 352.566 87 346 87c-6.579 0-12 5.431-12 12.006 0 6.563 5.434 11.994 12 11.994zm0-1.735c-5.686 0-10.264-4.576-10.264-10.259 0-5.695 4.566-10.271 10.264-10.271 5.686 0 10.264 4.576 10.277 10.271.012 5.683-4.579 10.26-10.277 10.26zm4.113-5.305c.466 0 .83-.365.83-.818 0-.238-.088-.427-.251-.59l-3.522-3.52 3.522-3.546c.176-.176.264-.352.264-.578 0-.453-.377-.817-.83-.817-.227 0-.403.075-.579.251L346 97.875l-3.535-3.52c-.163-.164-.34-.252-.578-.252-.466 0-.83.352-.83.817 0 .227.088.428.251.579l3.522 3.532-3.522 3.52c-.163.164-.251.365-.251.591 0 .453.364.818.83.818.239 0 .44-.076.604-.252l3.509-3.52 3.51 3.52c.163.164.364.252.603.252z" transform="translate(-334 -87)"/>
        </g>
    </g>
</svg>
