<svg xmlns="http://www.w3.org/2000/svg" width="16" height="16" viewBox="0 0 16 16">
    <g fill="none" fill-rule="evenodd">
        <g fill="#292929" fill-rule="nonzero">
            <g>
                <path d="M9.419 16c1.322 0 1.996-.683 1.996-2.023v-1.172h1.089c1.322 0 1.996-.683 1.996-2.022V5.686c0-.797-.16-1.306-.648-1.802L10.681.643C10.22.174 9.679 0 8.985 0h-2.41c-1.316 0-1.99.683-1.99 2.016v1.172H3.49c-1.316 0-1.99.683-1.99 2.023v8.766c0 1.34.674 2.023 1.99 2.023h5.929zm3.011-4.3h-1.015V9.062c0-.83-.1-1.2-.614-1.728l-3.459-3.53c-.494-.502-.901-.616-1.629-.616h-.027V2.056c0-.61.32-.958.962-.958h2.737v3.168c0 .75.381 1.125 1.122 1.125h2.891v5.352c0 .622-.327.957-.968.957zm.688-7.273h-2.464c-.22 0-.314-.094-.314-.315V1.601l2.778 2.826zM9.345 14.895H3.563c-.64 0-.961-.342-.961-.958V5.251c0-.61.32-.958.961-.958h2.023v3.596c0 .838.42 1.253 1.249 1.253h3.479v4.795c0 .616-.328.958-.969.958zm.782-6.764H6.948c-.253 0-.353-.1-.353-.355V4.527l3.532 3.604z" transform="translate(-790 -592) translate(790 592)"/>
            </g>
        </g>
    </g>
</svg>
