<svg xmlns="http://www.w3.org/2000/svg" width="32" height="32" viewBox="0 0 32 32">
    <g fill="none" fill-rule="evenodd">
        <g>
            <g>
                <path d="M0 0H32V32H0z" transform="translate(-295 -144) translate(295 144)"/>
                <path fill="#2BB673" d="M23.237 9.78l.553-.572c.277-.268.277-.623.018-.883l-.156-.164c-.242-.234-.605-.208-.864.043l-.553.554 1.002 1.022zm-9.654 8.845l1.47-.649 7.614-7.634-1.011-1.004-7.606 7.625-.691 1.428c-.061.13.086.295.224.234zM20.013 24c1.444 0 2.274-.83 2.274-2.45v-8.732l-1.133 1.133v7.539c0 .909-.492 1.376-1.158 1.376H10.49c-.881 0-1.357-.467-1.357-1.376v-9.296c0-.9.476-1.367 1.357-1.367h7.614l1.124-1.134h-8.755c-1.634 0-2.472.822-2.472 2.45v9.408C8 23.178 8.838 24 10.472 24h9.541z" transform="translate(-295 -144) translate(295 144)"/>
            </g>
        </g>
    </g>
</svg>
