<?xml version="1.0" encoding="UTF-8"?>
<svg width="16px" height="16px" viewBox="0 0 16 16" version="1.1" xmlns="http://www.w3.org/2000/svg" xmlns:xlink="http://www.w3.org/1999/xlink">
    <title>ED94823F-1235-4C1C-80CC-251EC004E4F6</title>
    <g id="Aykargo-Web---Desktop-/-Design" stroke="none" stroke-width="1" fill="none" fill-rule="evenodd">
        <g id="Desktop_008_LandingRegistered_DeliveryList" transform="translate(-1588.000000, -176.000000)" fill="#2470B8">
            <g id="atom/icon/line/filter/16x16" transform="translate(1588.000000, 176.000000)">
                <path d="M7.99532983,15.5 C8.34092236,15.5 8.61179218,15.2352404 8.61179218,14.9065733 L8.61179218,7.22854534 C9.43374197,6.9729154 10.0315236,6.2151552 10.0315236,5.32958004 C10.0315236,4.44400487 9.43374197,3.68624467 8.61179218,3.43061473 L8.61179218,1.07516738 C8.61179218,0.764759586 8.34092236,0.5 7.99532983,0.5 C7.65907764,0.5 7.38820782,0.764759586 7.38820782,1.07516738 L7.38820782,3.43061473 C6.56625803,3.68624467 5.95913602,4.44400487 5.95913602,5.32958004 C5.95913602,6.22428484 6.56625803,6.98204504 7.38820782,7.23767498 L7.38820782,14.9065733 C7.38820782,15.2352404 7.65907764,15.5 7.99532983,15.5 Z M13.9544658,15.5 C14.3000584,15.5 14.5709282,15.2352404 14.5709282,14.9339623 L14.5709282,12.3320146 C15.392878,12.0763847 16,11.3186245 16,10.4239197 C16,9.52921485 15.392878,8.77145466 14.5709282,8.52495435 L14.5709282,1.1025563 C14.5709282,0.764759586 14.3000584,0.5 13.9544658,0.5 C13.6182137,0.5 13.3473438,0.764759586 13.3473438,1.1025563 L13.3473438,8.52495435 C12.525394,8.7805843 11.9276124,9.53834449 11.9276124,10.4239197 C11.9276124,11.3094948 12.525394,12.067255 13.3473438,12.322885 L13.3473438,14.9339623 C13.3473438,15.2352404 13.6182137,15.5 13.9544658,15.5 Z M2.04553415,15.5 C2.38178634,15.5 2.65265616,15.2352404 2.65265616,14.9339623 L2.65265616,12.322885 C3.47460595,12.067255 4.07238762,11.3094948 4.07238762,10.4239197 C4.07238762,9.53834449 3.47460595,8.7805843 2.65265616,8.52495435 L2.65265616,1.1025563 C2.65265616,0.764759586 2.38178634,0.5 2.04553415,0.5 C1.69994162,0.5 1.4290718,0.764759586 1.4290718,1.1025563 L1.4290718,8.52495435 C0.607122008,8.7805843 0,9.53834449 0,10.4239197 C0,11.3186245 0.607122008,12.0763847 1.4290718,12.322885 L1.4290718,14.9339623 C1.4290718,15.2352404 1.69994162,15.5 2.04553415,15.5 Z M7.99532983,6.3703591 C7.4068885,6.3703591 6.93053123,5.9230067 6.93053123,5.32958004 C6.93053123,4.75441266 7.4068885,4.28880097 7.99532983,4.28880097 C8.60245184,4.28880097 9.06012843,4.75441266 9.06012843,5.32958004 C9.06012843,5.9230067 8.60245184,6.3703591 7.99532983,6.3703591 Z M13.9731465,11.4646987 C13.3753649,11.4646987 12.8990076,11.0173463 12.8990076,10.4239197 C12.8990076,9.83962264 13.3753649,9.3831406 13.9731465,9.3831406 C14.5709282,9.3831406 15.0379451,9.83962264 15.0379451,10.4239197 C15.0379451,11.0173463 14.5709282,11.4646987 13.9731465,11.4646987 Z M2.04553415,11.4646987 C1.44775248,11.4646987 0.971395213,11.0173463 0.971395213,10.4239197 C0.971395213,9.83962264 1.44775248,9.3831406 2.04553415,9.3831406 C2.64331582,9.3831406 3.11033275,9.83962264 3.11033275,10.4239197 C3.11033275,11.0173463 2.64331582,11.4646987 2.04553415,11.4646987 Z" id="􀟲"></path>
            </g>
        </g>
    </g>
</svg>