<?xml version="1.0" encoding="UTF-8"?>
<svg width="20px" height="20px" viewBox="0 0 20 20" version="1.1" xmlns="http://www.w3.org/2000/svg" xmlns:xlink="http://www.w3.org/1999/xlink">
    <title>atom/icon/line/truck/24x24 copy</title>
    <defs>
        <filter id="filter-1">
            <feColorMatrix in="SourceGraphic" type="matrix" values="0 0 0 0 1.000000 0 0 0 0 1.000000 0 0 0 0 1.000000 0 0 0 1.000000 0"></feColorMatrix>
        </filter>
    </defs>
    <g id="Aykargo-Web---Desktop-/-Design" stroke="none" stroke-width="1" fill="none" fill-rule="evenodd">
        <g id="atom/icon/line/truck/24x24-copy" transform="translate(-1174.000000, -374.000000)" filter="url(#filter-1)">
            <g transform="translate(1174.000000, 374.000000)">
                <path d="M9.23290834,0.233857488 C9.6971267,-0.0779524961 10.3028733,-0.0779524961 10.7670917,0.233857488 L10.7670917,0.233857488 L19.3877813,6.02427273 C19.7706527,6.28144294 20,6.71321007 20,7.17492025 L20,7.17492025 L20,18.615495 C20,19.3789823 19.383625,20 18.6206897,20 L18.6206897,20 L1.37931034,20 C0.616374987,20 0,19.3789823 0,18.615495 L0,18.615495 L0,7.17492025 C0,6.71321007 0.229347256,6.28144294 0.612218683,6.02427273 L0.612218683,6.02427273 Z M10,1.37990488 L1.37998524,7.17120569 L1.37931034,18.6206897 L3.9,18.62 L3.90011891,11.6052319 C3.90011891,10.9403231 4.40544555,10.3934396 5.05300389,10.3276765 L5.1843044,10.3210464 L14.8156956,10.3210464 C15.5249317,10.3210464 16.0998811,10.8959958 16.0998811,11.6052319 L16.0998811,11.6052319 L16.099,18.62 L18.6206897,18.6206897 L18.6200148,7.17120569 L10,1.37990488 Z M14.815,16.741 L5.184,16.741 L5.184,18.62 L14.815,18.62 L14.815,16.741 Z M14.815,14.173 L5.184,14.173 L5.184,15.457 L14.815,15.457 L14.815,14.173 Z M14.8156956,11.6052319 L5.1843044,11.6052319 L5.184,12.889 L14.815,12.889 L14.8156956,11.6052319 Z M12.568371,7.75267539 C12.922989,7.75267539 13.2104637,8.0401501 13.2104637,8.39476813 C13.2104637,8.72405631 12.9625901,8.9954505 12.6432526,9.03254105 L12.568371,9.03686088 L7.43162901,9.03686088 C7.07701098,9.03686088 6.78953627,8.74938617 6.78953627,8.39476813 C6.78953627,8.06547996 7.03740987,7.79408577 7.35674743,7.75699521 L7.43162901,7.75267539 L12.568371,7.75267539 Z" id="Combined-Shape" fill="#2BB673"></path>
            </g>
        </g>
    </g>
</svg>