<svg xmlns="http://www.w3.org/2000/svg" viewBox="0 0 40 46">
    <g fill="none" fill-rule="evenodd">
        <g>
            <g>
                <path fill="#2BB673" d="M20 0c11.046 0 20 8.954 20 20 0 10.148-7.559 18.531-17.353 19.826l-2.187 5.102c-.11.253-.403.371-.657.262-.118-.05-.212-.144-.263-.262l-2.186-5.101C7.56 38.532 0 30.149 0 20 0 8.954 8.954 0 20 0z" transform="translate(-978.000000, -411.000000) translate(978.000000, 411.000000)"/>
                <g fill="#FFF">
                    <path d="M12.923.289l.11.082 10.162 8.352c.353.29.408.816.123 1.175-.265.334-.73.406-1.078.182l-.078-.057-.305-.251v11.72c0 1.338-1.028 2.43-2.324 2.504l-.14.004H4.607c-1.314 0-2.388-1.047-2.46-2.365l-.004-.142-.001-11.721-.304.251c-.353.29-.87.235-1.156-.125-.264-.333-.236-.81.052-1.11l.071-.065L10.968.371c.567-.466 1.362-.493 1.955-.082zM12 1.672L3.779 8.429l.002.017.005.091v12.956c0 .43.32.785.732.83l.09.005h4.106v-7.11c0-.458.372-.83.83-.83h4.911c.459 0 .83.372.83.83v7.11h4.108c.423 0 .772-.326.816-.744l.005-.091V8.537c0-.036.003-.073.007-.108L12 1.672z" transform="translate(-978.000000, -411.000000) translate(978.000000, 411.000000) translate(8.000000, 8.000000)"/>
                </g>
            </g>
        </g>
    </g>
</svg>
