<?xml version="1.0" encoding="UTF-8"?>
<svg width="16px" height="16px" viewBox="0 0 16 16" version="1.1" xmlns="http://www.w3.org/2000/svg" xmlns:xlink="http://www.w3.org/1999/xlink">
    <title>atom/icon/line/home/24x24 copy</title>
    <g id="Aykargo-Web---Desktop-/-Design" stroke="none" stroke-width="1" fill="none" fill-rule="evenodd">
        <g id="009_LandingLogged-DeliveryDetail" transform="translate(-494.000000, -242.000000)" fill="#2470B8">
            <g id="atom/icon/line/home/24x24-copy" transform="translate(494.000000, 242.000000)">
                <path d="M8.60222959,0.192664003 L8.6732167,0.247466208 L15.3008772,5.81537234 C15.5310436,6.00873546 15.5669257,6.35956087 15.381022,6.59896282 C15.2083972,6.82126464 14.905239,6.86932392 14.6785273,6.720238 L14.6276605,6.68232351 L14.428,6.515 L14.4285559,14.3283739 C14.4285559,15.2197526 13.7577832,15.9481775 12.9126153,15.9973538 L12.8214169,16 L3.1785831,16 C2.3215916,16 1.62126746,15.3023123 1.57398826,14.4232317 L1.57144414,14.3283739 L1.571,6.515 L1.3723395,6.68232351 C1.14217307,6.87568663 0.804881613,6.83836478 0.618977955,6.59896282 C0.44635313,6.37666101 0.464961917,6.05828489 0.652785184,5.85911944 L0.6991228,5.81537234 L7.3267833,0.247466208 C7.69643614,-0.0630796217 8.21505172,-0.0813470234 8.60222959,0.192664003 Z M8,1.11441738 L2.63843236,5.61958592 C2.6389001,5.62335401 2.63933164,5.62713391 2.63972662,5.63092521 L2.64287012,5.69163924 L2.64287012,14.3283739 C2.64287012,14.6155959 2.85180339,14.8520609 3.12021127,14.882313 L3.1785831,14.8855826 L5.857,14.885 L5.85714805,10.1456715 C5.85714805,9.83994244 6.10499042,9.59210007 6.41071947,9.59210007 L9.58928053,9.59210007 C9.89500958,9.59210007 10.142852,9.83994244 10.142852,10.1456715 L10.142,14.885 L12.8214169,14.8855826 C13.0975586,14.8855826 13.3249013,14.6682658 13.3539864,14.389088 L13.3571299,14.3283739 L13.3571299,5.69163924 L13.363,5.62 L8,1.11441738 Z" id="Combined-Shape"></path>
            </g>
        </g>
    </g>
</svg>