<?xml version="1.0" encoding="UTF-8"?>
<svg width="16px" height="16px" viewBox="0 0 16 16" version="1.1" xmlns="http://www.w3.org/2000/svg" xmlns:xlink="http://www.w3.org/1999/xlink">
    <title>np_info_2691047_000000</title>
    <defs>
        <filter id="filter-1">
            <feColorMatrix in="SourceGraphic" type="matrix" values="0 0 0 0 1.000000 0 0 0 0 1.000000 0 0 0 0 1.000000 0 0 0 1.000000 0"></feColorMatrix>
        </filter>
    </defs>
    <g id="Aykargo-Web---Desktop-/-Design" stroke="none" stroke-width="1" fill="none" fill-rule="evenodd">
        <g id="001_Landing_Public" transform="translate(-560.000000, -513.000000)">
            <g id="np_info_2691047_000000" transform="translate(560.000000, 510.000000)" filter="url(#filter-1)">
                <g transform="translate(0.000000, 3.000000)">
                    <path d="M8,0 C5.87808,0 3.8432,0.84312 2.3432,2.3432 C0.8432,3.84328 0,5.87824 0,8 C0,10.12176 0.84312,12.1568 2.3432,13.6568 C3.84328,15.1568 5.87824,16 8,16 C10.12176,16 12.1568,15.15688 13.6568,13.6568 C15.1568,12.15672 16,10.12176 16,8 C16,5.87824 15.15688,3.8432 13.6568,2.3432 C12.15672,0.8432 10.12176,0 8,0 Z M9.376256,12.12624 C9.341256,12.1706144 9.2993808,12.2093648 9.2525056,12.2418656 C8.6100096,12.7012416 7.8412576,12.9518656 7.0512256,12.9599936 C6.3281056,12.9599936 5.9312256,12.4562496 6.0912256,11.7518656 C6.2930976,10.9068736 6.5024736,10.0656256 6.7074816,9.2224256 C6.7649824,9.0724256 6.761232,8.9055456 6.69623152,8.7580576 C6.63435632,8.6586832 6.53998192,8.5824256 6.42872752,8.5436896 C6.36685232,8.5268144 6.30372752,8.5155648 6.23997552,8.5105648 C6.16310032,8.493064 6.04935152,8.4799392 5.99371952,8.3955648 L5.97621872,8.368064 C5.93559312,8.3093136 5.92121872,8.2374384 5.93559312,8.168064 C5.9493432,8.0986896 5.99121872,8.038064 6.05121872,7.999936 L6.19684432,7.9036864 L6.41310032,7.7836864 L6.41247536,7.7836864 C6.54122576,7.7168112 6.67372336,7.6574368 6.80935536,7.6061824 C7.08685936,7.496808 7.37372336,7.4143104 7.66748336,7.3599264 C7.84436336,7.3286768 8.02311536,7.3086768 8.20311536,7.30053397 C8.34874096,7.29992704 8.49311536,7.315552 8.63498736,7.3474272 C9.15498736,7.4724272 9.41561136,7.9349312 9.27498736,8.4980512 C9.07498736,9.3486752 8.86249136,10.1967712 8.65436336,11.0399712 C8.55498896,11.4430912 8.65436336,11.6193472 9.06061936,11.7280992 C9.12124496,11.7443488 9.18374416,11.7556 9.24625136,11.7699744 C9.45625136,11.8237248 9.50562736,11.9549664 9.37625136,12.1262304 L9.376256,12.12624 Z M8.692512,5.77120436 C8.139392,5.76870016 7.641888,5.432448 7.43376,4.919328 C7.225008,4.406832 7.3462592,3.818704 7.741264,3.430576 C8.135632,3.042448 8.725632,2.930576 9.235008,3.147456 C9.74376,3.364336 10.071888,3.867456 10.065632,4.420576 C10.055007,5.1712 9.443136,5.773072 8.692512,5.77120436 Z" id="Shape" fill="#000000" fill-rule="nonzero"></path>
                </g>
            </g>
        </g>
    </g>
</svg>