<svg xmlns="http://www.w3.org/2000/svg" width="32" height="32" viewBox="0 0 32 32">
    <g fill="none" fill-rule="evenodd">
        <g>
            <g>
                <path d="M0 0H32V32H0z" transform="translate(-295 -205) translate(295 205)"/>
                <path fill="#2BB673" d="M15.5 7c3.038 0 5.5 2.558 5.5 5.713 0 .562-.122 1.225-.366 1.997l-.097.294-.108.304-.12.315-.065.161-.137.33c-.095.224-.198.454-.308.691l-.172.362-.182.371-.195.383c-.066.129-.135.26-.205.393l-.217.403-.229.415-.118.211-.246.43-.257.442-.269.453-.28.463-.29.475-.15.241-.31.492c-.105.167-.243.31-.405.42-.651.445-1.526.256-1.955-.422l-.15-.239-.304-.486-.291-.475-.28-.464-.269-.453-.257-.441-.246-.431-.234-.42-.223-.41-.212-.398-.101-.196-.195-.382-.093-.187-.177-.367-.084-.18-.16-.35-.15-.341-.137-.33-.125-.32-.115-.31-.053-.151-.097-.295c-.244-.771-.366-1.436-.366-1.998C10 9.558 12.462 7 15.5 7zm0 .993c-2.51 0-4.543 2.113-4.543 4.72 0 .515.132 1.16.397 1.934l.1.279.053.143.116.295.126.306.068.157.143.322.076.165.16.338.083.174.176.354.187.366.199.376.209.387.22.398.231.408.243.42.253.43.264.44.275.453.287.462.297.474.034.047c.147.179.402.22.596.089.052-.036.096-.082.13-.136l.297-.474.287-.462.275-.452.264-.441.253-.43.243-.42.23-.408.221-.398.21-.387.198-.376.187-.366.09-.178.17-.35.081-.17.154-.333.143-.322.068-.157.126-.306.06-.149.11-.29.099-.278c.265-.775.397-1.42.397-1.934 0-2.607-2.034-4.72-4.543-4.72zm0 2.482c1.32 0 2.391 1.112 2.391 2.483 0 1.37-1.07 2.482-2.391 2.482-1.32 0-2.391-1.112-2.391-2.482 0-1.371 1.07-2.483 2.391-2.483zm0 .993c-.792 0-1.435.667-1.435 1.49 0 .822.643 1.489 1.435 1.489s1.435-.667 1.435-1.49c0-.822-.643-1.489-1.435-1.489z" transform="translate(-295 -205) translate(295 205)"/>
            </g>
        </g>
    </g>
</svg>
