<svg width="12px" height="12px" viewBox="0 0 12 12" version="1.1" xmlns="http://www.w3.org/2000/svg" xmlns:xlink="http://www.w3.org/1999/xlink">
    <g id="Aykargo-Web---Desktop-/-Design" stroke="none" stroke-width="1" fill="none" fill-rule="evenodd">
        <g id="005_KVKK-Permissions" transform="translate(-309.000000, -417.000000)" fill="#FFFFFF" fill-rule="nonzero">
            <path d="M313.598194,429 C313.957111,429 314.234763,428.848014 314.431151,428.55095 L320.79684,418.43696 C320.939052,418.208981 321,418.015544 321,417.829016 C321,417.338515 320.6614,417 320.173815,417 C319.841986,417 319.638826,417.124352 319.435666,417.44905 L313.564334,426.948187 L310.55079,423.003454 C310.34763,422.734024 310.137698,422.623489 309.839729,422.623489 C309.352144,422.623489 309,422.97582 309,423.459413 C309,423.673575 309.074492,423.880829 309.250564,424.094991 L312.758465,428.557858 C312.995485,428.861831 313.24605,429 313.598194,429 Z" id="􀆅"></path>
        </g>
    </g>
</svg>