<svg xmlns="http://www.w3.org/2000/svg" width="83" height="75" viewBox="0 0 83 75">
    <g fill="none" fill-rule="evenodd">
        <g>
            <g>
                <path fill="#2BB673" fill-rule="nonzero" d="M27.032 22.022c1.71 0 2.97-1.232 2.97-2.83v-7.627c.57.212 1.07.616 1.38 1.117.16.25.35.452.64.452.3 0 .49-.192.66-.452.47-.76 1.01-1.223 1.92-1.223.9 0 1.52.453 2.03 1.204.2.27.41.471.72.471.42 0 .8-.317.8-.828 0-3.274-2.56-7.828-8.15-8.252V2.88c0-.51-.36-.857-.85-.857s-.85.347-.85.857v1.175c-5.59.424-8.15 4.978-8.15 8.252 0 .51.38.828.8.828.31 0 .52-.202.72-.471.52-.742 1.13-1.204 2.04-1.204.9 0 1.45.462 1.92 1.223.16.26.35.452.65.452.29 0 .48-.192.64-.452.31-.5.81-.905 1.38-1.117v7.617c0 .683-.5 1.223-1.27 1.223-.76 0-1.27-.55-1.27-1.233 0-.568-.37-.915-.85-.915s-.84.347-.84.925c0 1.579 1.26 2.84 2.96 2.84zm4.92-10.582c-.04 0-.07-.02-.12-.097-.55-.77-1.57-1.348-2.68-1.348s-2.13.578-2.68 1.348c-.05.077-.08.097-.12.097-.04 0-.08-.02-.12-.097-.53-.885-1.4-1.31-2.28-1.31-.95 0-1.73.482-2.18 1.099.49-2.36 2.89-5.624 7.38-5.624s6.89 3.264 7.38 5.633c-.45-.626-1.23-1.107-2.18-1.107-.88 0-1.76.424-2.28 1.31-.04.076-.07.096-.12.096z" transform="translate(-16 -813) translate(16 813) rotate(-7 29.152 12.022)"/>
                <path fill="#2470B8" fill-rule="nonzero" d="M62.35 20.93c.385 0 .699-.326.699-.747 0-.345-.218-.616-.498-.738-1.03-.457-1.24-1.915-.218-2.998.35-.365.716-.804.716-1.682V4.742c0-1.859-.882-2.812-2.603-2.812h-8.794c-1.72 0-2.603.944-2.603 2.812v13.405c0 1.84.882 2.783 2.585 2.783H62.35zm-1.432-5.67h-8.35V3.462h7.782c.83 0 1.258.477 1.258 1.336v9.743c0 .467-.245.72-.69.72zm-10.428.346V4.798c0-.756.323-1.214.97-1.317V15.28c-.376.047-.7.159-.97.327zm10.122 3.82h-8.856c-.847 0-1.3-.495-1.3-1.335 0-.794.523-1.327 1.37-1.327h8.402c.105 0 .192-.009.28-.028-.393.925-.341 1.915.104 2.69z" transform="translate(-16 -813) translate(16 813) rotate(22 56.05 11.43)"/>
                <path fill="#2470B8" fill-rule="nonzero" d="M20.298 39.134c1.747 0 2.917-1.168 2.917-2.993 0-.779-.176-1.67-.473-2.669-.465-1.573-1.274-3.715-2.052-5.37-.649-1.386-.993-2.035-2.62-2.408-1.435-.333-3.423-.56-5.851-.56s-4.416.227-5.859.56c-1.627.373-1.971 1.022-2.62 2.409-.778 1.654-1.587 3.796-2.052 5.37-.297.997-.473 1.89-.473 2.668 0 1.825 1.178 2.993 2.917 2.993.922 0 1.804-.406 2.453-1.2l1.362-1.655c.2-.227.417-.34.641-.34h7.254c.232 0 .448.113.64.34l1.363 1.655c.657.794 1.531 1.2 2.453 1.2zm0-1.282c-.57 0-1.114-.308-1.555-.835l-1.459-1.744c-.36-.446-.673-.665-1.354-.665H8.508c-.689 0-.994.219-1.362.665l-1.45 1.744c-.442.527-.995.835-1.564.835-.953 0-1.667-.648-1.667-1.687 0-.478.104-1.054.345-1.881.505-1.769 1.386-4.056 2.148-5.743.376-.82.585-1.306 1.53-1.525 1.387-.333 3.335-.552 5.731-.552 2.388 0 4.336.22 5.722.552.954.227 1.155.706 1.531 1.525.778 1.687 1.62 3.982 2.148 5.743.249.827.345 1.403.345 1.881 0 1.039-.714 1.687-1.667 1.687zm-11.63-4.615c.385 0 .618-.251.618-.657v-1.314h1.258c.44 0 .697-.251.697-.657 0-.397-.256-.649-.697-.649H9.286v-1.306c0-.405-.233-.657-.617-.657-.393 0-.626.252-.626.657v1.306h-1.33c-.409 0-.65.252-.65.65 0 .405.241.656.65.656h1.33v1.314c0 .406.233.657.626.657zm8.272-2.717c.617 0 1.098-.487 1.098-1.111 0-.633-.481-1.12-1.098-1.12-.618 0-1.106.487-1.106 1.12 0 .624.488 1.11 1.106 1.11zm-2.244 2.28c.625 0 1.106-.48 1.106-1.112 0-.633-.481-1.12-1.106-1.12-.61 0-1.098.487-1.098 1.12 0 .633.488 1.111 1.098 1.111z" transform="translate(-16 -813) translate(16 813) rotate(-12 12.215 32.134)"/>
                <g stroke="#292929" stroke-width="2">
                    <path stroke-linejoin="round" d="M4.064 26.743L4.064 37.029 23.454 48 42.844 37.029 42.844 17.143 23.454 27.429 4.064 17.143" transform="translate(-16 -813) translate(16 813) translate(17.001 26)"/>
                    <path d="M23.454 48L23.454 27.429" transform="translate(-16 -813) translate(16 813) translate(17.001 26)"/>
                    <path stroke-linejoin="round" d="M4.064 17.143L23.454 6.857 42.844 17.143" transform="translate(-16 -813) translate(16 813) translate(17.001 26)"/>
                    <path stroke-linejoin="round" d="M23.454 6.857L28.994 0 46.999 9.6 42.844 17.143" transform="translate(-16 -813) translate(16 813) translate(17.001 26)"/>
                    <path stroke-linejoin="round" d="M0.308 23.062L5.846 16.207 23.854 25.813 19.094 34.288" transform="translate(-16 -813) translate(16 813) translate(17.001 26) rotate(178 12.081 25.248)"/>
                </g>
                <path fill="#2BB673" fill-rule="nonzero" d="M79.335 33.85c1.367 0 2.075-.726 2.075-2.146v-7.11c0-1.413-.708-2.138-2.075-2.138h-1.834c-.509 0-.667-.1-.969-.445l-.515-.595c-.33-.373-.667-.567-1.333-.567h-2.59c-.666 0-1.003.194-1.333.567l-.515.595c-.302.345-.467.445-.969.445h-1.793c-1.374 0-2.074.725-2.074 2.138v7.11c0 1.42.7 2.145 2.074 2.145h11.851zm-.041-1.185H67.526c-.626 0-.983-.351-.983-1.04v-6.952c0-.689.357-1.033.983-1.033h2.047c.584 0 .9-.115 1.223-.495l.501-.581c.371-.43.564-.538 1.14-.538h1.904c.577 0 .769.107 1.133.53l.509.589c.322.38.632.495 1.215.495h2.096c.625 0 .982.344.982 1.033v6.952c0 .689-.357 1.04-.982 1.04zm-5.888-.947c1.965 0 3.531-1.643 3.531-3.695 0-2.059-1.566-3.702-3.53-3.702-1.959 0-3.532 1.643-3.532 3.702 0 2.052 1.573 3.695 3.531 3.695zm4.617-5.316c.44-.007.817-.38.817-.86 0-.46-.377-.855-.817-.855-.454 0-.831.395-.831.854 0 .488.377.861.83.861zm-4.617 4.219c-1.367 0-2.48-1.155-2.48-2.598 0-1.449 1.106-2.604 2.48-2.604 1.374 0 2.487 1.155 2.487 2.604 0 1.443-1.113 2.598-2.487 2.598z" transform="translate(-16 -813) translate(16 813) rotate(15 73.41 27.35)"/>
            </g>
        </g>
    </g>
</svg>
