<svg xmlns="http://www.w3.org/2000/svg" width="24" height="24" viewBox="0 0 24 24">
    <g fill="none" fill-rule="evenodd">
        <g fill="#292929">
            <g>
                <path d="M12 24c6.579 0 12-5.431 12-11.994C24 5.431 18.566 0 12 0 5.421 0 0 5.431 0 12.006 0 18.57 5.434 24 12 24zm0-1.735c-5.686 0-10.264-4.576-10.264-10.259C1.736 6.311 6.302 1.735 12 1.735c5.686 0 10.264 4.576 10.277 10.271.012 5.683-4.579 10.26-10.277 10.26zm4.113-5.305c.466 0 .83-.365.83-.818 0-.238-.088-.427-.251-.59l-3.522-3.52 3.522-3.546c.176-.176.264-.352.264-.578 0-.453-.377-.817-.83-.817-.227 0-.403.075-.579.251L12 10.875l-3.535-3.52c-.163-.164-.34-.252-.578-.252-.466 0-.83.352-.83.817 0 .227.088.428.251.579l3.522 3.532-3.522 3.52c-.163.164-.251.365-.251.591 0 .453.364.818.83.818.239 0 .44-.076.604-.252L12 13.188l3.51 3.52c.163.164.364.252.603.252z" transform="translate(-16 -92) translate(16 92)"/>
            </g>
        </g>
    </g>
</svg>
