<svg xmlns="http://www.w3.org/2000/svg" width="16" height="16" viewBox="0 0 16 16">
    <g fill="none" fill-rule="evenodd">
        <g fill="#2470B8">
            <path d="M17.388 452.372c-.134 0-.244-.096-.267-.223l-.005-.05v-8.33c-.598-.444-.988-1.153-.988-1.954 0-.068.014-.137.04-.201l.03-.062 2.017-3.642c.084-.155.237-.257.41-.277l5.388-.005 5.363.005c.15.018.287.098.375.221l.034.056 2.018 3.642.03.062c.025.064.039.133.039.2 0 .758-.348 1.432-.89 1.879l-.098.076v8.33l-.005.05c-.02.11-.107.198-.218.218l-.05.005H17.389zm12.952-.54v-7.756l-.122.045c-.246.084-.51.13-.783.13-.705 0-1.363-.31-1.816-.815-.453.505-1.11.815-1.816.815-.617 0-1.198-.237-1.637-.635l-.092-.088-.074-.079-.074.08c-.448.45-1.068.722-1.729.722-.707 0-1.363-.31-1.816-.815-.453.505-1.111.815-1.816.815-.274 0-.537-.046-.783-.13l-.122-.045v7.755h12.68zm-9.125-13.658H18.69l-2.018 3.643c0 1.044.848 1.89 1.89 1.892.639 0 1.2-.315 1.543-.797-.003-.025-.004-.05-.002-.075l.006-.038 1.106-4.625zm8.095 0h-2.525l1.106 4.625.006.038c.002.026.001.05-.002.075.342.482.904.797 1.542.797 1.009-.001 1.836-.794 1.888-1.792l.003-.1-2.018-3.643zm-5.568 0h-1.967l-1.13 4.723c.341.49.909.81 1.552.81.64 0 1.206-.317 1.548-.804l-.002-.02-.001-.02v-4.689zm2.483 0h-1.967v4.689l-.003.04c.342.487.908.805 1.548.805.605 0 1.144-.285 1.489-.726l.062-.085-1.129-4.723z" transform="translate(-16.000000, -437.000000)"/>
        </g>
    </g>
</svg>
