<svg xmlns="http://www.w3.org/2000/svg" width="24" height="24" viewBox="0 0 24 24">
    <g fill="none" fill-rule="evenodd">
        <g fill="#292929" fill-rule="nonzero">
            <g>
                <path d="M12.006 24C18.566 24 24 18.563 24 12S18.554 0 11.994 0C5.434 0 0 5.437 0 12s5.446 12 12.006 12zm0-2.13c-5.47 0-9.852-4.396-9.852-9.87 0-5.474 4.369-9.87 9.84-9.87 5.47 0 9.865 4.396 9.877 9.87.012 5.474-4.394 9.87-9.865 9.87zm4.605-13.102l.841-.842c.384-.397.421-.842.05-1.214l-.26-.272c-.371-.36-.817-.322-1.2.062l-.855.842 1.424 1.424zm-9.94 8.904l1.622-.607 7.612-7.591-1.423-1.424-7.6 7.59-.656 1.549c-.124.31.173.594.445.483z" transform="translate(-338.000000, -155.000000) translate(338.000000, 155.000000)"/>
            </g>
        </g>
    </g>
</svg>
