<svg xmlns="http://www.w3.org/2000/svg" width="16" height="16" viewBox="0 0 16 16">
    <g fill="none" fill-rule="evenodd">
        <g fill="#2470B8">
            <g>
                <path d="M13 0c1.071 0 1.946.842 1.998 1.9L15 2v12c0 1.071-.842 1.946-1.9 1.998L13 16H6.5c-1.105 0-2-.895-2-2 0-.276.224-.5.5-.5s.5.224.5.5c0 .527.408.96.925.997L6.5 15H13c.527 0 .96-.408.997-.925L14 14V2c0-.527-.408-.96-.925-.997L13 1H6.5c-.552 0-1 .448-1 1 0 .276-.224.5-.5.5s-.5-.224-.5-.5C4.5.929 5.342.054 6.4.002L6.5 0H13zM4.4 5c.125.002.244.049.328.13.047.039.083.086.106.14.01.052.01.105 0 .157-.003.114-.052.222-.138.307L2.581 7.59h7.932c.131.001.257.048.349.13.088.08.137.186.137.297.007.115-.043.227-.135.308-.093.082-.22.125-.351.12h-7.9l2.115 1.857c.05.036.087.085.106.14.017.054.017.112 0 .167.015.051.015.106 0 .157-.02.055-.056.104-.106.14-.086.062-.195.095-.307.093-.13.004-.257-.04-.349-.121l-2.93-2.573c-.06-.046-.105-.108-.126-.176-.021-.054-.021-.113 0-.167-.01-.043-.01-.087 0-.13.026-.054.066-.101.116-.14l2.919-2.572c.096-.076.22-.119.349-.121z" transform="translate(-16.000000, -565.000000) translate(16.000000, 565.000000)"/>
            </g>
        </g>
    </g>
</svg>
