<svg xmlns="http://www.w3.org/2000/svg" width="16" height="16" viewBox="0 0 16 16">
    <g fill="none" fill-rule="evenodd">
        <g fill="#2470B8">
            <g>
                <path d="M11.912 16c1.383 0 2.344-.38 3.19-1.305.061-.061.114-.123.158-.176.502-.547.74-1.102.74-1.613 0-.564-.317-1.093-.996-1.552L12.581 9.68c-.704-.493-1.541-.564-2.255.141l-.626.618c-.185.185-.36.211-.581.088-.423-.265-1.33-1.032-2.009-1.702-.731-.723-1.304-1.384-1.639-1.948-.123-.211-.097-.397.088-.582l.617-.626c.705-.714.635-1.551.15-2.256L4.652.996C4.185.318 3.656.01 3.092 0c-.51-.009-1.066.238-1.603.732L1.304.89C.388 1.728 0 2.698 0 4.064c0 2.354 1.498 5.201 4.115 7.82C6.722 14.483 9.568 16 11.912 16zm.009-1.11c-2.124.035-4.802-1.587-6.978-3.756-2.185-2.186-3.86-4.945-3.824-7.07.009-.926.326-1.737.996-2.336.044-.035.088-.07.132-.115.282-.255.581-.387.837-.387.264 0 .475.105.652.37L5.348 4.01c.194.282.22.608-.088.917l-.705.705c-.529.52-.502 1.19-.123 1.71.423.609 1.216 1.525 1.93 2.23.704.715 1.682 1.57 2.29 2.002.52.37 1.19.396 1.718-.133l.696-.705c.308-.308.634-.282.925-.088l2.414 1.613c.256.177.362.397.362.653 0 .264-.133.555-.388.846-.044.044-.07.08-.115.132-.599.67-1.41.979-2.343.996z" transform="translate(-16.000000, -221.000000) translate(16.000000, 221.000000)"/>
            </g>
        </g>
    </g>
</svg>
