<svg xmlns="http://www.w3.org/2000/svg" width="16" height="16" viewBox="0 0 16 16">
    <g fill="none" fill-rule="evenodd">
        <g fill="#2470B8">
            <g>
                <path d="M8.014 7.977c2.034 0 3.674-1.808 3.674-4.04C11.688 1.744 10.048 0 8.014 0 5.989 0 4.32 1.77 4.33 3.947c.01 2.232 1.65 4.03 3.684 4.03zm0-1.134c-1.356 0-2.483-1.264-2.483-2.896-.01-1.577 1.117-2.813 2.483-2.813 1.365 0 2.474 1.218 2.474 2.804 0 1.623-1.118 2.905-2.474 2.905zM13.53 16c1.338 0 1.97-.415 1.97-1.328 0-2.278-2.85-5.542-7.495-5.542C3.35 9.13.5 12.394.5 14.672.5 15.585 1.132 16 2.47 16h11.06zm.33-1.134H2.14c-.33 0-.44-.093-.44-.323 0-1.577 2.273-4.279 6.305-4.279 4.031 0 6.304 2.702 6.304 4.279 0 .23-.12.323-.45.323z" transform="translate(-16.000000, -501.000000) translate(16.000000, 501.000000)"/>
            </g>
        </g>
    </g>
</svg>
