<?xml version="1.0" encoding="UTF-8"?>
<svg width="16px" height="16px" viewBox="0 0 16 16" version="1.1" xmlns="http://www.w3.org/2000/svg" xmlns:xlink="http://www.w3.org/1999/xlink">
    <title>atom/icon/line/home/24x24 copy</title>
    <g id="Aykargo-Web---Desktop-/-Design" stroke="none" stroke-width="1" fill="none" fill-rule="evenodd">
        <g id="009_LandingLogged-DeliveryDetail" transform="translate(-494.000000, -288.000000)" fill="#2470B8">
            <g id="atom/icon/line/home/24x24-copy" transform="translate(494.000000, 288.000000)">
                <path d="M8.01374465,7.97694524 C10.0479536,7.97694524 11.6881491,6.16945245 11.6881491,3.93775216 C11.6881491,1.74293948 10.0479536,0 8.01374465,0 C5.98869884,0 4.32101405,1.77060519 4.33013957,3.94697406 C4.33934026,6.17867435 5.97953574,7.97694524 8.01374465,7.97694524 Z M8.01374465,6.8426513 C6.65760538,6.8426513 5.53054368,5.57925072 5.53054368,3.94697406 C5.52138057,2.37002882 6.64844227,1.13429395 8.01374465,1.13429395 C9.37904704,1.13429395 10.4877825,2.35158501 10.4877825,3.93775216 C10.4877825,5.56080692 9.36988393,6.8426513 8.01374465,6.8426513 Z M13.5299328,16 C14.8677459,16 15.5,15.5850144 15.5,14.6720461 C15.5,12.3942363 12.6502749,9.129683 8.00458155,9.129683 C3.34972511,9.129683 0.5,12.3942363 0.5,14.6720461 C0.5,15.5850144 1.13225412,16 2.4700672,16 L13.5299328,16 Z M13.8598045,14.8657061 L2.14019548,14.8657061 C1.81032376,14.8657061 1.70036652,14.773487 1.70036652,14.5429395 C1.70036652,12.9659942 3.97281613,10.2639769 8.00458155,10.2639769 C12.036347,10.2639769 14.3087966,12.9659942 14.3087966,14.5429395 C14.3087966,14.773487 14.1896762,14.8657061 13.8598045,14.8657061 Z" id="􀉩"></path>
            </g>
        </g>
    </g>
</svg>