<svg xmlns="http://www.w3.org/2000/svg" width="16" height="16" viewBox="0 0 16 16">
    <g fill="none" fill-rule="evenodd">
        <g fill="#2470B8">
            <g>
                <path d="M14.166 12.898c1.215 0 1.834-.628 1.834-1.86V3.854C16 2.629 15.38 2 14.166 2H4.263c-1.215 0-1.834.622-1.834 1.855v3.342c.164-.019.334-.037.498-.037.17 0 .334.018.504.037V3.923c0-.597.31-.896.868-.896h9.83c.553 0 .87.299.87.896v7.046c0 .597-.317.902-.87.902H6.54c-.078.368-.212.71-.394 1.027h8.021zM2.933 14c1.59 0 2.933-1.37 2.933-3.006 0-1.65-1.324-3.006-2.933-3.006C1.323 7.988 0 9.344 0 10.994 0 12.644 1.324 14 2.933 14zm-.006-2.85c-.522 0-.93-.443-.93-1.052 0-.542.414-1.003.93-1.003.528 0 .935.461.935 1.003 0 .61-.407 1.051-.935 1.051zm.006 2.128c-.838 0-1.5-.442-1.676-.846V12.4c.182-.367.777-.771 1.676-.771.892 0 1.487.41 1.676.778v.025c-.189.404-.838.846-1.676.846z" transform="translate(-16.000000, -285.000000) translate(16.000000, 285.000000)"/>
            </g>
        </g>
    </g>
</svg>
