<?xml version="1.0" encoding="UTF-8"?>
<svg width="16px" height="16px" viewBox="0 0 16 16" version="1.1" xmlns="http://www.w3.org/2000/svg" xmlns:xlink="http://www.w3.org/1999/xlink">
    <title>np_question_2673781_000000</title>
    <defs>
        <filter id="filter-1">
            <feColorMatrix in="SourceGraphic" type="matrix" values="0 0 0 0 1.000000 0 0 0 0 1.000000 0 0 0 0 1.000000 0 0 0 1.000000 0"></feColorMatrix>
        </filter>
    </defs>
    <g id="Aykargo-Web---Desktop-/-Design" stroke="none" stroke-width="1" fill="none" fill-rule="evenodd">
        <g id="001_Landing_Public" transform="translate(-278.000000, -513.000000)">
            <g id="np_question_2673781_000000" transform="translate(278.000000, 510.000000)" filter="url(#filter-1)">
                <g transform="translate(0.000000, 3.000000)">
                    <path d="M8,0 C3.58753684,0 0,3.58753684 0,8 C0,12.4124632 3.58753684,16 8,16 C12.4124632,16 16,12.4124632 16,8 C16,3.58753684 12.4124632,0 8,0 Z M8.13486821,12.5808842 C7.59605558,12.5808842 7.17500295,12.14272 7.17500295,11.6210189 C7.17500295,11.0822063 7.61316716,10.6611537 8.13486821,10.6611537 C8.67368084,10.6611537 9.09473347,11.0993179 9.09473347,11.6210189 C9.09473347,12.1598316 8.65656926,12.5808842 8.13486821,12.5808842 Z M10.4592472,7.68016842 C10.0888556,8.18543158 9.70135242,8.45517474 9.41517137,8.65714526 C9.09544084,8.87622737 8.96056926,8.97687579 8.92701979,9.49925053 C8.90991495,9.73477053 8.70793768,9.90319158 8.48885558,9.90319158 L7.79805979,9.90319158 C7.54542821,9.90319158 7.32634611,9.68410947 7.34345768,9.41504 C7.44477305,8.20254316 7.91581979,7.76437895 8.50529347,7.36047158 C8.74081347,7.19205053 8.95989558,7.04074105 9.17897768,6.73744842 C9.39805979,6.43415579 9.43160926,6.01310316 9.24608337,5.65982316 C9.12832,5.40719158 8.79148126,5.00325053 8.01647495,5.00325053 C7.00594863,5.00325053 6.702656,5.64338526 6.60200758,6.13153684 C6.56845474,6.35061895 6.38292547,6.50192842 6.16384337,6.50192842 L5.45660968,6.50192842 C5.18686653,6.50192842 4.96845811,6.26640842 5.01844547,5.99666526 C5.20397811,4.66640842 6.16384337,3.40331789 8.01650863,3.40331789 C9.17834442,3.40331789 10.1724665,3.97568 10.6605507,4.93621895 C11.1329213,5.84410947 11.0487107,6.88821895 10.4592371,7.68030316 L10.4592472,7.68016842 Z" id="Shape" fill="#000000" fill-rule="nonzero"></path>
                </g>
            </g>
        </g>
    </g>
</svg>