<svg xmlns="http://www.w3.org/2000/svg" width="32" height="32" viewBox="0 0 32 32">
    <g fill="none" fill-rule="evenodd">
        <g>
            <g>
                <path d="M0 0H32V32H0z" transform="translate(-327 -144) translate(327 144)"/>
                <path fill="#2BB673" d="M19.325 24c.978 0 1.656-.658 1.71-1.621l.524-10.677h.971c.262 0 .47-.214.47-.474s-.208-.467-.47-.467h-3.39V9.606C19.14 8.604 18.485 8 17.406 8h-2.82c-1.07 0-1.726.604-1.726 1.606v1.155H9.478c-.255 0-.478.214-.478.467 0 .26.223.474.478.474h.978l.524 10.684c.046.964.724 1.614 1.71 1.614h6.635zm-1.18-13.239h-4.29V9.667c0-.45.307-.742.793-.742h2.697c.485 0 .8.291.8.742v1.094zm1.08 12.298h-6.45c-.446 0-.793-.336-.809-.787l-.531-10.57h9.107l-.5 10.57c-.024.45-.363.787-.817.787zm-5.394-1.33c.247 0 .408-.161.4-.375l-.23-7.9c-.008-.223-.17-.368-.401-.368-.239 0-.4.153-.393.375l.231 7.893c.008.222.162.374.393.374zm2.173 0c.246 0 .408-.153.408-.375V13.46c0-.222-.162-.375-.408-.375-.239 0-.409.153-.409.375v7.893c0 .222.17.374.409.374zm2.173 0c.23 0 .385-.146.393-.375l.23-7.886c.008-.229-.153-.374-.392-.374-.224 0-.393.145-.4.367l-.232 7.893c0 .222.154.374.4.374z" transform="translate(-327 -144) translate(327 144)"/>
            </g>
        </g>
    </g>
</svg>
