<svg xmlns="http://www.w3.org/2000/svg" width="20" height="20" viewBox="0 0 20 20">
    <defs>
        <filter id="zv8fyhya9a" color-interpolation-filters="auto">
            <feColorMatrix in="SourceGraphic" values="0 0 0 0 0.678431 0 0 0 0 0.717647 0 0 0 0 0.745098 0 0 0 1.000000 0"/>
        </filter>
    </defs>
    <g fill="none" fill-rule="evenodd">
        <g filter="url(#zv8fyhya9a)" transform="translate(-846.000000, -281.000000)">
            <g>
                <path fill="#292929" d="M18.943 20c.63 0 1.057-.48 1.057-1.07 0-.279-.09-.546-.304-.758l-5.23-5.195c1.08-1.372 1.732-3.088 1.732-4.95C16.198 3.6 12.553 0 8.099 0 3.656 0 0 3.6 0 8.027c0 4.414 3.645 8.015 8.099 8.015 1.8 0 3.465-.58 4.814-1.572l5.253 5.218c.203.212.484.312.777.312zM8.099 14.548c-3.61 0-6.58-2.954-6.58-6.521 0-3.579 2.97-6.533 6.58-6.533s6.592 2.954 6.592 6.533c0 3.567-2.981 6.521-6.592 6.521z" transform="translate(846.000000, 281.000000)"/>
            </g>
        </g>
    </g>
</svg>
