<?xml version="1.0" encoding="UTF-8"?>
<svg width="23px" height="23px" viewBox="0 0 23 23" version="1.1" xmlns="http://www.w3.org/2000/svg" xmlns:xlink="http://www.w3.org/1999/xlink">
    <title>np_search_3549244_000000</title>
    <g id="Aykargo-Web---Desktop-/-Design" stroke="none" stroke-width="1" fill="none" fill-rule="evenodd">
        <g id="001_Landing_Public" transform="translate(-658.000000, -445.000000)" fill="#FFFFFF" fill-rule="nonzero">
            <g id="Group" transform="translate(638.000000, 427.000000)">
                <g id="np_search_3549244_000000" transform="translate(20.000000, 18.000000)">
                    <path d="M9.631469,19.2527333 C11.8002793,19.2541795 13.9054991,18.519467 15.6014899,17.1686724 L21.431227,23 L23,21.430799 L17.1717435,15.5979904 C18.9877343,13.3027798 19.6600974,10.3046259 18.9978762,7.45264385 C18.3370987,4.6006248 16.4140997,2.20407873 13.7740617,0.941550018 C11.132469,-0.321052744 8.06128947,-0.31379598 5.42698859,0.963243668 C2.79261368,2.24028591 0.882754798,4.64686557 0.237597227,7.50173548 C-0.408707784,10.3580864 0.279526917,13.3519455 2.10711063,15.6385664 C3.93613049,17.9251133 6.70501501,19.2556557 9.63135796,19.2527678 L9.631469,19.2527333 Z M9.5,2 C11.4892227,2 13.3965471,2.78954671 14.8027689,4.19723106 C16.2104533,5.60345293 17,7.51062729 17,9.5 C17,11.4893727 16.2104533,13.3965471 14.8027689,14.8027689 C13.3965471,16.2104533 11.4893727,17 9.5,17 C7.51062729,17 5.60345293,16.2104533 4.19723106,14.8027689 C2.78954671,13.3965471 2,11.4893727 2,9.5 C2,7.51062729 2.78954671,5.60345293 4.19723106,4.19723106 C5.60345293,2.78954671 7.51062729,2 9.5,2 Z" id="Shape"></path>
                </g>
            </g>
        </g>
    </g>
</svg>