<svg xmlns="http://www.w3.org/2000/svg" width="30" height="30" viewBox="0 0 30 30">
    <g fill="none" fill-rule="evenodd">
        <g fill="#D4D4D4">
            <g>
                <g>
                    <path d="M12.408 26.25c.73 0 1.286-.3 1.67-.897L25.84 6.673c.292-.449.411-.843.411-1.224 0-.992-.703-1.699-1.697-1.699-.676 0-1.087.245-1.512.924L12.355 22.035l-5.476-7.123c-.398-.53-.822-.748-1.419-.748-.994 0-1.71.72-1.71 1.713 0 .435.146.856.504 1.291l6.497 8.226c.464.584.967.856 1.657.856z" transform="translate(-1211 -390) translate(1200 379) translate(11 11)"/>
                </g>
            </g>
        </g>
    </g>
</svg>
