<?xml version="1.0" encoding="UTF-8"?>
<svg width="21px" height="19px" viewBox="0 0 21 19" version="1.1" xmlns="http://www.w3.org/2000/svg" xmlns:xlink="http://www.w3.org/1999/xlink">
    <title>atom/icon/line/truck/24x24</title>
    <defs>
        <filter id="filter-1">
            <feColorMatrix in="SourceGraphic" type="matrix" values="0 0 0 0 1.000000 0 0 0 0 1.000000 0 0 0 0 1.000000 0 0 0 1.000000 0"></feColorMatrix>
        </filter>
    </defs>
    <g id="Aykargo-Web---Desktop-/-Design" stroke="none" stroke-width="1" fill="none" fill-rule="evenodd">
        <g id="atom/icon/line/truck/24x24" transform="translate(-1174.000000, -284.000000)" filter="url(#filter-1)">
            <g transform="translate(1174.000000, 284.000000)">
                <path d="M7.51666667,16 C7.51666667,17.6568542 6.17352092,19 4.51666667,19 C2.91504089,19 1.60655828,17.7449049 1.52110569,16.1646016 L1.51724917,15.9402833 L1.51724917,15.9402833 C0.682953905,15.7349497 0.0547368808,15.0036141 0.00339512894,14.1175152 L0,14 L0,2 C0,0.934879411 0.83261331,0.0642260804 1.88248481,0.00339512894 L2,0 L12.6666667,0 C13.7317873,0 14.6024406,0.83261331 14.6632715,1.88248481 L14.6666667,2 L14.665875,2.66604545 L17.254644,2.66666667 C17.7235999,2.66666667 18.1551815,2.91269661 18.3952764,3.30950969 L18.4472136,3.40371521 L20.8592363,8.22776052 C20.9332925,8.37587299 20.9789475,8.53615196 20.9942473,8.70031971 L21,8.82404532 L21,14.6666667 C21,15.3695745 20.4560815,15.9454434 19.7661749,15.9963428 L19.6666667,16 L17.6833333,16 C17.6833333,17.6568542 16.3401876,19 14.6833333,19 C13.0817076,19 11.7732249,17.7449049 11.6877724,16.1646016 L11.6833333,16 L7.51666667,16 Z M14.6833333,14.3333333 C13.7628588,14.3333333 13.0166667,15.0795254 13.0166667,16 C13.0166667,16.9204746 13.7628588,17.6666667 14.6833333,17.6666667 C15.6038079,17.6666667 16.35,16.9204746 16.35,16 C16.35,15.0795254 15.6038079,14.3333333 14.6833333,14.3333333 Z M4.51666667,14.3333333 C3.59619208,14.3333333 2.85,15.0795254 2.85,16 C2.85,16.9204746 3.59619208,17.6666667 4.51666667,17.6666667 C5.43714125,17.6666667 6.18333333,16.9204746 6.18333333,16 C6.18333333,15.0795254 5.43714125,14.3333333 4.51666667,14.3333333 Z M12.6666667,1.33333333 L2,1.33333333 C1.65810944,1.33333333 1.37632856,1.59069346 1.33781849,1.92225258 L1.33333333,2 L1.33333333,14 C1.33333333,14.312656 1.54856222,14.5750426 1.83894124,14.647081 C2.33305591,13.6698 3.3466412,13 4.51666667,13 C5.69453322,13 6.71385575,13.6788076 7.20477609,14.6665647 L11.9952239,14.6665647 C12.2837547,14.0860258 12.7548125,13.6122079 13.3333333,13.3202003 L13.3333333,2 C13.3333333,1.65810944 13.0759732,1.37632856 12.7444141,1.33781849 L12.6666667,1.33333333 Z M19.6665,9.66581818 L14.665875,9.66581818 L14.665875,13.0003182 L14.6833333,13 C15.8611999,13 16.8805224,13.6788076 17.3714428,14.6665647 L19.6666667,14.6666667 L19.6665,9.66581818 Z M17.254644,4 L14.6666667,4 L14.665875,8.33322727 L19.4215,8.33322727 L17.254644,4 Z" id="Shape" fill="#2BB673" fill-rule="nonzero"></path>
            </g>
        </g>
    </g>
</svg>