<svg xmlns="http://www.w3.org/2000/svg" width="16" height="16" viewBox="0 0 16 16">
    <g fill="none" fill-rule="evenodd">
        <g fill="#2470B8" fill-rule="nonzero" stroke="#2470B8" stroke-width=".25">
            <path d="M565.479 249.217c.172 0 .311.14.311.311h0v5.085h5.604c.172 0 .311.14.311.312h0v9.547c0 .172-.14.31-.311.31h0-14.428c-.172 0-.311-.138-.311-.31h0v-14.944c0-.172.14-.31.311-.31h0zm-3.245 12.53h-2.023v2.413h2.023v-2.412zm2.933-11.907h-7.89v14.32h2.311v-2.724c0-.172.14-.311.311-.311h2.647c.172 0 .31.14.31.311h0v2.724h2.311v-14.32zm5.915 5.396h-5.292v8.924h5.293v-8.924zm-1.128 6.149c.172 0 .311.139.311.31 0 .173-.139.312-.311.312h0-3.035c-.172 0-.312-.139-.312-.311s.14-.311.312-.311h0zm-9.496-3.654c.172 0 .311.14.311.312h0v1.889c0 .172-.14.311-.311.311h0-1.712c-.172 0-.312-.14-.312-.311h0v-1.89c0-.171.14-.31.312-.31h0zm3.241 0c.172 0 .312.14.312.312h0v1.889c0 .172-.14.311-.312.311h0-1.712c-.172 0-.311-.14-.311-.311h0v-1.89c0-.171.139-.31.311-.31h0zm6.255 1.656c.172 0 .311.14.311.311 0 .172-.139.312-.311.312h0-3.035c-.172 0-.312-.14-.312-.312s.14-.311.312-.311h0zm-9.807-1.033h-1.09v1.266h1.09v-1.266zm3.241 0h-1.09v1.266h1.09v-1.266zm6.566-.965c.172 0 .311.14.311.311 0 .173-.139.312-.311.312h0-3.035c-.172 0-.312-.14-.312-.312s.14-.31.312-.31h0zm-9.496-3.162c.172 0 .311.139.311.311h0v1.889c0 .172-.14.311-.311.311h0-1.712c-.172 0-.312-.139-.312-.311h0v-1.889c0-.172.14-.311.312-.311h0zm3.241 0c.172 0 .312.139.312.311h0v1.889c0 .172-.14.311-.312.311h0-1.712c-.172 0-.311-.139-.311-.311h0v-1.889c0-.172.139-.311.311-.311h0zm-3.552.622h-1.09v1.267h1.09v-1.267zm3.241 0h-1.09v1.267h1.09v-1.267zm-2.93-4.127c.172 0 .311.14.311.311h0v1.89c0 .171-.14.31-.311.31h0-1.712c-.172 0-.312-.139-.312-.31h0v-1.89c0-.172.14-.311.312-.311h0zm3.241 0c.172 0 .312.14.312.311h0v1.89c0 .171-.14.31-.312.31h0-1.712c-.172 0-.311-.139-.311-.31h0v-1.89c0-.172.139-.311.311-.311h0zm-3.552.623h-1.09v1.266h1.09v-1.266zm3.241 0h-1.09v1.266h1.09v-1.266z" transform="translate(-556 -249)"/>
        </g>
    </g>
</svg>
